HIERARCHY
ROOT pelvis
{
  OFFSET 0 100 0
  CHANNELS 6 Xposition Yposition Zposition Zrotation Xrotation Yrotation
  JOINT pelvis_right_femur
  {
    OFFSET -10.78128 -3.44521 -0.5502486
    CHANNELS 3 Zrotation Xrotation Yrotation
    JOINT right_femur_tibia
    {
      OFFSET -0.8047443 -44.0398 -0.1307829
      CHANNELS 3 Zrotation Xrotation Yrotation
      JOINT right_tibia_foot
      {
        OFFSET 3.006224 -47.83518 -5
        CHANNELS 3 Zrotation Xrotation Yrotation
        End Site
        {
          OFFSET 0 -5 15
        }
      }
    }
  }
  JOINT pelvis_left_femur
  {
    OFFSET 10.78128 -3.44521 -0.5502486
    CHANNELS 3 Zrotation Xrotation Yrotation
    JOINT left_femur_tibia
    {
      OFFSET 0.8047443 -44.0398 -0.1307829
      CHANNELS 3 Zrotation Xrotation Yrotation
      JOINT left_tibia_foot
      {
        OFFSET -4.370144 -48.10324 -4.275266
        CHANNELS 3 Zrotation Xrotation Yrotation
        End Site
        {
          OFFSET 0 -5 15
        }
      }
    }
  }
  JOINT pelvis_spine1
  {
    OFFSET 0 6.468898 -3.129235
    CHANNELS 3 Zrotation Xrotation Yrotation
    JOINT spine1
    {
      OFFSET 0 23.15396 4.99043
      CHANNELS 3 Zrotation Xrotation Yrotation
      JOINT spine2
      {
        OFFSET 0 20.79997 -5.064912
        CHANNELS 3 Zrotation Xrotation Yrotation
        JOINT neck
        {
          OFFSET 0 14.38658 9.616178
          CHANNELS 3 Zrotation Xrotation Yrotation
          End Site
          {
            OFFSET 0 20 0
          }
        }
      }
      JOINT right_manubrium
      {
        OFFSET -5.722621 16.35077 3.967754
        CHANNELS 3 Zrotation Xrotation Yrotation
        JOINT right_clavicle
        {
          OFFSET -13.16364 1.694482 -4.693211
          CHANNELS 3 Zrotation Xrotation Yrotation
          JOINT right_humerus
          {
            OFFSET -28.5034 -0.3100689 -2.792744
            CHANNELS 3 Zrotation Xrotation Yrotation
            JOINT right_radius
            {
              OFFSET -25.15693 0.02248979 -1.271978
              CHANNELS 3 Zrotation Xrotation Yrotation
              End Site
              {
                OFFSET -15 0 0
              }
            }
          }
        }
      }
      JOINT left_manubrium
      {
        OFFSET 5.722621 16.35077 3.967754
        CHANNELS 3 Zrotation Xrotation Yrotation
        JOINT left_clavicle
        {
          OFFSET 13.16364 1.694482 -4.693211
          CHANNELS 3 Zrotation Xrotation Yrotation
          JOINT left_humerus
          {
            OFFSET 29.39168 -1.063119 -2.237045
            CHANNELS 3 Zrotation Xrotation Yrotation
            JOINT left_radius
            {
              OFFSET 24.59957 -0.9528479 0.9047498
              CHANNELS 3 Zrotation Xrotation Yrotation
              End Site
              {
                OFFSET 15 -0 -0
              }
            }
          }
        }
      }
    }
  }
}
MOTION
Frames: 11
Frame Time: 0.0416666666667
-1555.616 80.12136 2522.866 -12.0745 -1.103162 -86.27754 3.927536 3.574606 -9.026609 -0 18.66835 -0 -20.75174 12.91097 5.153125 -1.367197 -3.460564 -3.591985 -0 22.51057 -0 6.541863 -6.794259 16.63845 0.1042421 -2.067596 4.178105 -0.6632445 16.33774 -5.193856 1.174997 23.45625 3.666356 2.70867 -20.36249 4.203602 -7.844111 -25.87528 11.13472 97.82875 12.23381 -13.20572 -0 0 12.09258 -26.54113 4.58826 12.72938 4.239798 -26.6276 -10.78764 -87.81219 2.717528 20.63737 0 0 -11.47632 20.90029 12.90112 -14.82271
-1562.476 80.16699 2523.895 -12.07899 -1.059219 -86.48458 3.926532 3.575082 -9.026941 -0 18.67498 -0 -20.75185 12.91343 5.153563 -1.368024 -3.459389 -3.592803 -0 22.50631 -0 6.542361 -6.795128 16.639 0.1037934 -2.067678 4.177793 -0.6635586 16.33774 -5.193606 1.175048 23.4565 3.666535 2.708744 -20.36229 4.203811 -7.844216 -25.87522 11.13453 97.82901 12.23327 -13.20507 -0 0 12.09272 -26.54185 4.587773 12.72979 4.239742 -26.62716 -10.78786 -87.81215 2.717449 20.63726 0 0 -11.47484 20.90028 12.90112 -14.82277
-1569.34 80.21284 2524.898 -12.08336 -1.015254 -86.69139 3.925525 3.573837 -9.027532 -0 18.68098 -0 -20.75236 12.9167 5.154047 -1.36904 -3.456512 -3.593594 -0 22.50341 -0 6.542892 -6.796192 16.63919 0.1034281 -2.067791 4.177247 -0.6637618 16.33788 -5.193582 1.175092 23.45676 3.666717 2.708839 -20.36215 4.203996 -7.844434 -25.87488 11.13438 97.82986 12.23246 -13.20514 -0 0 12.09197 -26.54245 4.587247 12.72992 4.239719 -26.62718 -10.78832 -87.81172 2.716994 20.63629 0 0 -11.47424 20.90083 12.90103 -14.82355
-1576.208 80.25896 2525.875 -12.08758 -0.9712469 -86.89796 3.924575 3.571008 -9.028337 -0 18.686 -0 -20.75322 12.92055 5.154546 -1.370176 -3.45217 -3.594308 -0 22.502 -0 6.543423 -6.79738 16.63901 0.103166 -2.067927 4.176508 -0.6638453 16.33813 -5.193778 1.175127 23.45703 3.66689 2.708949 -20.36209 4.204149 -7.844748 -25.87427 11.13426 97.83122 12.23144 -13.20591 -0 0 12.09039 -26.5429 4.586716 12.72978 4.239727 -26.62766 -10.78897 -87.81093 2.716205 20.63452 0 0 -11.47453 20.90188 12.90086 -14.82498
-1583.079 80.3054 2526.828 -12.0916 -0.9271818 -87.10433 3.92374 3.566823 -9.0293 -0 18.68977 -0 -20.75438 12.92473 5.155029 -1.371356 -3.446683 -3.594904 -0 22.50211 -0 6.54392 -6.798614 16.6385 0.10302 -2.068077 4.175628 -0.6638079 16.33847 -5.194175 1.17515 23.45727 3.667044 2.709067 -20.36209 4.20426 -7.845135 -25.87345 11.13419 97.83299 12.23027 -13.2073 -0 0 12.08812 -26.54317 4.586214 12.72938 4.239766 -26.62854 -10.78977 -87.80984 2.715141 20.63212 0 0 -11.47567 20.90335 12.90061 -14.82695
-1589.954 80.35216 2527.755 -12.09539 -0.8830459 -87.31055 3.923069 3.561588 -9.030354 -0 18.69208 -0 -20.75574 12.92894 5.155466 -1.372507 -3.440431 -3.595349 -0 22.50368 -0 6.544354 -6.799815 16.63769 0.1029951 -2.068231 4.174667 -0.6636559 16.33889 -5.19474 1.175161 23.45748 3.66717 2.709184 -20.36217 4.204324 -7.845568 -25.87247 11.13417 97.83504 12.22904 -13.2092 -0 0 12.08531 -26.54325 4.58577 12.72875 4.239833 -26.62975 -10.79066 -87.80854 2.713878 20.62923 0 0 -11.47754 20.90513 12.90031 -14.82932
-1596.832 80.39924 2528.656 -12.09891 -0.8388308 -87.51666 3.922597 3.555666 -9.031432 -0 18.69285 -0 -20.75722 12.93295 5.155832 -1.373556 -3.433828 -3.595621 -0 22.50658 -0 6.544701 -6.80091 16.63664 0.1030887 -2.068379 4.173687 -0.6634028 16.33934 -5.195433 1.17516 23.45764 3.667261 2.709293 -20.36231 4.204339 -7.846019 -25.87141 11.13419 97.83724 12.22782 -13.21149 -0 0 12.08218 -26.54314 4.58541 12.72795 4.239921 -26.63122 -10.79159 -87.8071 2.712501 20.62607 0 0 -11.48002 20.90711 12.89998 -14.83193
-1603.713 80.44663 2529.532 -12.10215 -0.7945327 -87.7227 3.922346 3.549446 -9.032465 -0 18.69208 -0 -20.75872 12.9365 5.156106 -1.374444 -3.427296 -3.595709 -0 22.51057 -0 6.544941 -6.801835 16.63543 0.1032911 -2.068513 4.172751 -0.6630676 16.33981 -5.196206 1.175146 23.45775 3.667312 2.709388 -20.3625 4.204305 -7.84646 -25.87032 11.13426 97.83946 12.22669 -13.21399 -0 0 12.07891 -26.54286 4.585153 12.72702 4.240025 -26.63283 -10.79249 -87.80563 2.711099 20.62283 0 0 -11.48293 20.90915 12.89963 -14.8346
-1610.598 80.49427 2530.382 -12.10509 -0.7501529 -87.92875 3.922325 3.543325 -9.033392 -0 18.68987 -0 -20.76015 12.93939 5.156275 -1.375119 -3.421238 -3.595613 -0 22.51536 -0 6.545064 -6.802538 16.63414 0.1035858 -2.068625 4.171914 -0.6626741 16.34027 -5.19701 1.175121 23.4578 3.667322 2.709464 -20.36273 4.204226 -7.846863 -25.86928 11.13437 97.84154 12.22572 -13.21656 -0 0 12.07571 -26.54242 4.585012 12.72604 4.240137 -26.63449 -10.79331 -87.80421 2.709761 20.61972 0 0 -11.48607 20.91112 12.89929 -14.83718
-1617.487 80.54211 2531.207 -12.10773 -0.7056969 -88.13485 3.922527 3.53768 -9.034157 -0 18.6864 -0 -20.76142 12.94146 5.156331 -1.375548 -3.416015 -3.595346 -0 22.52064 -0 6.545065 -6.802983 16.63285 0.1039515 -2.068708 4.171225 -0.6622486 16.34068 -5.197792 1.175088 23.45779 3.667292 2.709516 -20.36298 4.204108 -7.847205 -25.86835 11.1345 97.84336 12.22495 -13.21903 -0 0 12.07279 -26.54187 4.584992 12.72506 4.240252 -26.63609 -10.79401 -87.80293 2.708568 20.61693 0 0 -11.48923 20.91291 12.89898 -14.8395
-1624.378 80.59008 2532.006 -12.11006 -0.6611744 -88.34104 3.922932 3.532846 -9.03472 -0 18.68195 -0 -20.76245 12.94261 5.156275 -1.375713 -3.411921 -3.59493 -0 22.52606 -0 6.544949 -6.803151 16.63164 0.104363 -2.068758 4.170721 -0.6618189 16.34102 -5.198505 1.175048 23.45772 3.667225 2.709543 -20.36323 4.203961 -7.847466 -25.86759 11.13466 97.84483 12.22444 -13.22125 -0 0 12.07032 -26.54124 4.585089 12.72414 4.24036 -26.63753 -10.79453 -87.80187 2.707587 20.61462 0 0 -11.49223 20.91441 12.89873 -14.84142
